<svg width="119" height="132" viewBox="0 0 119 132" fill="none" xmlns="http://www.w3.org/2000/svg">
<path fill-rule="evenodd" clip-rule="evenodd" d="M30.1306 15.4903C30.3996 15.0217 30.996 14.8609 31.4625 15.1311L88.5118 48.172C88.9784 48.4422 89.1385 49.0411 88.8694 49.5097C88.6004 49.9783 88.004 50.1391 87.5375 49.8689L30.4882 16.828C30.0216 16.5578 29.8615 15.9589 30.1306 15.4903Z" fill="black"/>
<path fill-rule="evenodd" clip-rule="evenodd" d="M52.502 1.87485C54.6298 0.646607 57.0433 0 59.5 0C61.9567 0 64.3702 0.646607 66.498 1.87485C66.4986 1.87524 66.4993 1.87563 66.5 1.87602L112 27.8813C114.126 29.1091 115.892 30.8745 117.121 33.0004C118.349 35.1264 118.997 37.5381 119 39.9937V92.0063C118.997 94.4619 118.349 96.8736 117.121 98.9995C115.892 101.126 114.126 102.891 112 104.119L111.996 104.121L66.5 130.124C66.4996 130.124 66.4993 130.124 66.4989 130.125C64.3709 131.353 61.9571 132 59.5 132C57.0429 132 54.6291 131.353 52.5011 130.125C52.5007 130.124 52.5004 130.124 52.5 130.124L7.00386 104.121L7 104.119C4.87384 102.891 3.10786 101.126 1.87923 98.9995C0.6506 96.8736 0.00251818 94.4619 0 92.0063V39.9937C0.00251818 37.5381 0.650599 35.1264 1.87923 33.0004C3.10786 30.8745 4.87384 29.1091 7 27.8813L7.00386 27.8791L52.5 1.87602C52.5007 1.87563 52.5014 1.87524 52.502 1.87485ZM59.5 2.0004C57.3936 2.0004 55.3242 2.55499 53.5 3.60842L53.4961 3.61064L8 29.6137C7.99932 29.6141 7.99865 29.6145 7.99797 29.6148C6.17645 30.6672 4.66349 32.18 3.61077 34.0015C2.55774 35.8236 2.00225 37.8907 2 39.9953V92.0047C2.00225 94.1093 2.55774 96.1763 3.61077 97.9985C4.66343 99.8199 6.17628 101.333 7.99767 102.385C7.99844 102.385 7.99922 102.386 8 102.386L53.5 128.392C55.3242 129.445 57.3936 130 59.5 130C61.6064 130 63.6758 129.445 65.5 128.392L65.5039 128.389L111 102.386C111.001 102.386 111.002 102.385 111.002 102.385C112.824 101.333 114.337 99.8199 115.389 97.9985C116.442 96.1762 116.998 94.109 117 92.0042V39.9958C116.998 37.891 116.442 35.8238 115.389 34.0015C114.337 32.18 112.824 30.6672 111.002 29.6148C111.001 29.6145 111.001 29.6141 111 29.6137L65.5039 3.61064L65.5 3.60842C63.6758 2.55499 61.6064 2.0004 59.5 2.0004Z" fill="black"/>
<path fill-rule="evenodd" clip-rule="evenodd" d="M2.13282 33.4876C2.4058 33.0209 3.00963 32.8614 3.48152 33.1314L59 64.8958L114.518 33.1314C114.99 32.8614 115.594 33.0209 115.867 33.4876C116.14 33.9543 115.979 34.5516 115.507 34.8216L59.4943 66.8688C59.1885 67.0437 58.8115 67.0437 58.5057 66.8688L2.493 34.8216C2.0211 34.5516 1.85985 33.9543 2.13282 33.4876Z" fill="black"/>
<path fill-rule="evenodd" clip-rule="evenodd" d="M59 65C59.5523 65 60 65.4376 60 65.9775V130.023C60 130.562 59.5523 131 59 131C58.4477 131 58 130.562 58 130.023V65.9775C58 65.4376 58.4477 65 59 65Z" fill="black"/>
</svg>
